<svg width="18" height="14" viewBox="0 0 18 14" fill="none" xmlns="http://www.w3.org/2000/svg">
<g clip-path="url(#clip0_2007_7910)">
<path d="M11.3065 0.674805V5.4547C11.4263 5.40649 11.5287 5.32298 11.6416 5.26148C13.8449 4.05812 16.6084 4.97881 17.6269 7.26009C18.7356 9.74264 17.267 12.6155 14.6273 13.1784C13.4812 13.4226 12.2932 13.1951 11.3229 12.5491V12.9851H9.56189V0.674805H11.3061H11.3065ZM13.651 6.63361C11.8453 6.74577 10.7625 8.70839 11.6559 10.2961C12.5818 11.9418 14.9812 11.9533 15.9215 10.3129C16.8883 8.62628 15.5867 6.51341 13.651 6.63361Z" fill="#03001C"/>
<path d="M8.47213 8.00488H6.55178C5.9232 6.68727 4.31348 6.16735 3.03954 6.92451C1.58984 7.78615 1.4354 9.87247 2.74533 10.9396C3.99726 11.9595 5.8942 11.5224 6.54375 10.051H8.47248C8.33132 10.6674 8.03153 11.2642 7.63355 11.753C5.7132 14.1108 1.97873 13.7596 0.530787 11.0912C-1.14253 8.00768 1.37426 4.35252 4.83933 4.77006C6.58043 4.97971 8.06647 6.30187 8.47248 8.00488H8.47213Z" fill="#03001C"/>
</g>
<defs>
<clipPath id="clip0_2007_7910">
<rect width="18.0001" height="12.6503" fill="white" transform="translate(0 0.674805)"/>
</clipPath>
</defs>
</svg>
