<svg width="68" height="46" viewBox="0 0 68 46" fill="none" xmlns="http://www.w3.org/2000/svg">
<path fill-rule="evenodd" clip-rule="evenodd" d="M19.366 29.7874H22.1138L19.366 25.2079L17.0456 21.3514L7.1849 27.2738L8.69092 29.7874H19.366ZM44.9289 29.7874H58.3517L49.9964 15.8663L40.7568 0.5L36.9505 2.78975L30.9059 6.42247L36.9505 16.487L44.9289 29.7874ZM40.238 34.3773C39.2912 33.7671 38.1818 33.4107 36.9809 33.4107H36.9505C33.6334 33.4309 30.9366 36.1379 30.9366 39.4553C30.9366 42.7732 33.6334 45.4798 36.9505 45.5004H36.9809C38.1818 45.5004 39.2912 45.1443 40.238 44.5337V45.1645H43.0158V29.7881H40.238V34.3773ZM40.238 40.0862C39.943 41.6128 38.5892 42.7826 36.9809 42.7826H36.9505C35.1289 42.7624 33.6536 41.2766 33.6536 39.455C33.6536 37.6337 35.1289 36.148 36.9505 36.1375H36.9809C38.5892 36.1375 39.9427 37.2979 40.238 38.8242V40.0862ZM53.2839 34.377C52.3155 33.745 51.1838 33.4091 50.0275 33.4103H49.9964C46.6792 33.4306 43.9828 36.1375 43.9828 39.455C43.9828 42.7728 46.6792 45.4794 49.9964 45.5H50.0275C51.2284 45.5 52.3476 45.1439 53.2839 44.5333V45.1642H56.0624V33.7154H53.2839V34.377ZM53.2839 40.0862C52.9889 41.6128 51.6351 42.7826 50.0275 42.7826H49.9964C48.1755 42.7624 46.6999 41.2766 46.6999 39.455C46.6999 37.6337 48.1755 36.148 49.9964 36.1375H50.0275C51.6351 36.1375 52.9885 37.2979 53.2839 38.8242V40.0862ZM65.9433 38.7023C65.8417 38.6509 65.6989 38.6003 65.5359 38.5392C64.9152 38.3256 63.9077 38.061 62.5032 37.7559C61.272 37.4808 60.6513 37.1251 60.6513 36.6772C60.6513 36.3616 60.763 36.1071 60.9766 35.9241C61.2618 35.6798 61.7701 35.5576 62.5032 35.5576C63.2461 35.5576 63.7855 35.7206 64.1011 36.0359C64.2945 36.2293 64.4365 36.5748 64.5284 37.0636H67.4797C67.4797 35.6187 66.8893 34.5808 65.7293 33.95C65.6682 33.9101 65.6034 33.8761 65.5359 33.8484C64.7315 33.4717 63.6633 33.2783 62.3304 33.2783C60.712 33.2783 59.4912 33.706 58.6775 34.5707C58.0264 35.2626 57.7108 36.1071 57.7108 37.1044C57.7108 38.3466 58.321 39.2416 59.5628 39.8218C60.0309 40.0456 61.1704 40.3612 62.9822 40.748C64.1932 41.0126 64.8031 41.3893 64.8031 41.8676C64.8031 42.1528 64.6816 42.3968 64.417 42.6206C64.0808 42.9055 63.5718 43.0482 62.8904 43.0482C61.9845 43.0482 61.3435 42.8957 60.9672 42.6007C60.5902 42.3158 60.3968 41.8987 60.3968 41.3694H57.3034C57.3034 42.7739 57.8937 43.8219 59.0842 44.5134C60.0309 45.0528 61.2723 45.3279 62.8094 45.3279C63.8368 45.3279 64.7525 45.1547 65.5362 44.8192C65.6993 44.748 65.842 44.6764 65.9946 44.5951C67.2056 43.9238 67.8162 42.8552 67.8162 41.39C67.8158 40.188 67.1944 39.2923 65.9433 38.7023ZM9.48477 34.377C8.51204 33.7463 7.37756 33.4105 6.21825 33.4103H6.18752C2.88051 33.4306 0.183716 36.1375 0.183716 39.455C0.183716 42.7728 2.88051 45.4794 6.18752 45.5H6.21825C7.41916 45.5 8.53836 45.1439 9.48477 44.5333V45.1642H12.2629V33.7154H9.48477V34.377ZM9.48477 40.0862C9.18979 41.6128 7.83597 42.7826 6.21825 42.7826H6.18752C4.3764 42.7624 2.90076 41.2766 2.90076 39.455C2.90076 37.6337 4.3764 36.148 6.18752 36.1375H6.21825C7.83633 36.1375 9.18979 37.2979 9.48477 38.8242V40.0862ZM26.8253 32.5048H29.8478V29.8485H26.8253V32.5048ZM26.8253 45.1638H29.8478V33.4103H26.8253V45.1638ZM22.6633 34.3773C21.6904 33.7466 20.5558 33.4109 19.3964 33.4107H19.366C16.0485 33.4309 13.3517 36.1379 13.3517 39.4553C13.3517 42.7732 16.0482 45.4798 19.366 45.5004H19.3964C20.5559 45.5003 21.6905 45.1646 22.6633 44.5337V45.1645H25.4414V29.7881H22.6633V34.3773ZM22.6633 40.0862C22.3683 41.6128 21.0145 42.7826 19.3964 42.7826H19.366C17.5444 42.7624 16.0688 41.2766 16.0688 39.455C16.0688 37.6337 17.5444 36.148 19.366 36.1375H19.3964C21.0145 36.1375 22.3679 37.2979 22.6633 38.8242V40.0862ZM40.2272 29.7876L36.9505 24.3131L28.9014 10.9209L19.366 16.6604L19.0403 16.8535L19.366 17.3928L26.8148 29.7876H40.2272Z" fill="#212121"/>
</svg>
