<svg width="96" height="28" viewBox="0 0 96 28" fill="none" xmlns="http://www.w3.org/2000/svg">
<path fill-rule="evenodd" clip-rule="evenodd" d="M49.4969 6.10282C49.4969 7.19086 48.6061 8.06736 47.5004 8.06736C46.3946 8.06736 45.5039 7.19086 45.5039 6.10282C45.5039 5.01476 46.364 4.13826 47.5004 4.13826C48.6368 4.16849 49.4969 5.04497 49.4969 6.10282ZM41.2651 10.0615C41.2651 10.2429 41.2651 10.5451 41.2651 10.5451C41.2651 10.5451 40.313 9.33609 38.2857 9.33609C34.9378 9.33609 32.3269 11.8447 32.3269 15.3205C32.3269 18.766 34.9071 21.3047 38.2857 21.3047C40.3437 21.3047 41.2651 20.0656 41.2651 20.0656V20.5794C41.2651 20.8212 41.4494 21.0026 41.6951 21.0026H44.1831V9.63835C44.1831 9.63835 41.9101 9.63835 41.6951 9.63835C41.4494 9.63835 41.2651 9.84992 41.2651 10.0615ZM41.2651 17.3455C40.8044 18.0104 39.883 18.5846 38.7772 18.5846C36.8114 18.5846 35.3063 17.3757 35.3063 15.3205C35.3063 13.2653 36.8114 12.0564 38.7772 12.0564C39.8522 12.0564 40.8351 12.6608 41.2651 13.2955V17.3455ZM46.026 9.63851H48.9747V21.0027H46.026V9.63851ZM90.0719 9.33673C88.0448 9.33673 87.0925 10.5458 87.0925 10.5458V4.1685H84.1438V21.0032C84.1438 21.0032 86.4168 21.0032 86.6318 21.0032C86.8775 21.0032 87.0619 20.7916 87.0619 20.5801V20.0662C87.0619 20.0662 88.014 21.3053 90.0412 21.3053C93.3892 21.3053 96 18.7666 96 15.3211C96 11.8756 93.3892 9.33673 90.0719 9.33673ZM89.5805 18.5545C88.444 18.5545 87.5532 17.9802 87.0925 17.3153V13.2653C87.5532 12.6608 88.5361 12.0261 89.5805 12.0261C91.5463 12.0261 93.0513 13.235 93.0513 15.2904C93.0513 17.3456 91.5463 18.5545 89.5805 18.5545ZM82.6081 14.2626V21.0328H79.6595V14.5951C79.6595 12.7212 79.0451 11.9656 77.3865 11.9656C76.4957 11.9656 75.5743 12.419 74.9907 13.0839V21.0026H72.0421V9.63835H74.3764C74.6221 9.63835 74.8064 9.84992 74.8064 10.0615V10.5451C75.6664 9.66855 76.8029 9.33609 77.9394 9.33609C79.2294 9.33609 80.3045 9.69885 81.1644 10.4241C82.2088 11.2704 82.6081 12.3585 82.6081 14.2626ZM64.8853 9.33673C62.858 9.33673 61.9059 10.5458 61.9059 10.5458V4.1685H58.9572V21.0032C58.9572 21.0032 61.2301 21.0032 61.4451 21.0032C61.6909 21.0032 61.8751 20.7916 61.8751 20.5801V20.0662C61.8751 20.0662 62.8274 21.3053 64.8545 21.3053C68.2026 21.3053 70.8133 18.7666 70.8133 15.3211C70.8441 11.8756 68.2333 9.33673 64.8853 9.33673ZM64.3938 18.5545C63.2574 18.5545 62.3667 17.9802 61.906 17.3153V13.2653C62.3667 12.6608 63.3496 12.0261 64.3938 12.0261C66.3596 12.0261 67.8647 13.235 67.8647 15.2904C67.8647 17.3456 66.3596 18.5545 64.3938 18.5545ZM56.4079 9.33609C57.2986 9.33609 57.7593 9.48728 57.7593 9.48728V12.1772C57.7593 12.1772 55.3021 11.3611 53.7664 13.0839V21.0328H50.8176V9.63835C50.8176 9.63835 53.0906 9.63835 53.3056 9.63835C53.5513 9.63835 53.7356 9.84992 53.7356 10.0615V10.5451C54.2884 9.91042 55.4864 9.33609 56.4079 9.33609ZM24.4241 19.5466C24.2906 19.2305 24.1572 18.8879 24.0238 18.5981C23.8102 18.1238 23.5967 17.6758 23.4098 17.2543L23.3832 17.2279C21.5415 13.2755 19.5664 9.27052 17.4845 5.31818L17.4044 5.16009C17.1909 4.76486 16.9774 4.34328 16.7639 3.92169C16.497 3.44741 16.2301 2.94678 15.8031 2.4725C14.949 1.41854 13.7212 0.838867 12.4133 0.838867C11.0788 0.838867 9.87775 1.41854 8.99694 2.4198C8.59659 2.89409 8.30299 3.39471 8.03608 3.86899C7.82256 4.29058 7.60903 4.71216 7.39551 5.10739L7.31544 5.26549C5.26026 9.21782 3.25847 13.2229 1.41683 17.1752L1.39013 17.2279C1.2033 17.6495 0.989774 18.0975 0.77625 18.5717C0.642798 18.8616 0.509345 19.1777 0.375892 19.5203C0.0289148 20.4952 -0.0778474 21.4174 0.0556053 22.3659C0.349201 24.3421 1.68373 26.0021 3.52538 26.7399C4.21933 27.0297 4.93998 27.1614 5.68732 27.1614C5.90084 27.1614 6.16774 27.1351 6.38127 27.1087C7.26205 27.0033 8.16953 26.7135 9.05032 26.2129C10.1447 25.6068 11.1855 24.7373 12.36 23.4726C13.5343 24.7373 14.6019 25.6068 15.6695 26.2129C16.5504 26.7135 17.4578 27.0033 18.3386 27.1087C18.5521 27.1351 18.819 27.1614 19.0325 27.1614C19.7799 27.1614 20.5273 27.0297 21.1945 26.7399C23.0629 26.0021 24.3707 24.3158 24.6643 22.3659C24.8778 21.4437 24.771 20.5215 24.4241 19.5466ZM12.4114 20.6398C11.0269 18.9008 10.1295 17.264 9.82192 15.883C9.69367 15.2948 9.66806 14.7833 9.74499 14.323C9.79631 13.9138 9.95008 13.5558 10.1553 13.249C10.6424 12.5584 11.4628 12.1236 12.4114 12.1236C13.36 12.1236 14.2061 12.5329 14.6676 13.249C14.8727 13.5558 15.0265 13.9138 15.0778 14.323C15.1547 14.7833 15.1291 15.3204 15.0009 15.883C14.6932 17.2384 13.7959 18.8751 12.4114 20.6398ZM22.817 21.9639C22.6343 23.3027 21.721 24.4614 20.4423 24.9764C19.816 25.2338 19.1376 25.3111 18.4591 25.2338C17.8068 25.1566 17.1544 24.9506 16.4759 24.5644C15.5364 24.0494 14.597 23.2513 13.5011 22.0669C15.2233 19.9813 16.2671 18.0759 16.6585 16.3766C16.8412 15.5784 16.8673 14.8575 16.789 14.1881C16.6847 13.5444 16.4498 12.9522 16.0844 12.4372C15.2755 11.2785 13.9185 10.6091 12.4051 10.6091C10.8916 10.6091 9.53456 11.3043 8.72565 12.4372C8.36032 12.9522 8.12546 13.5444 8.02109 14.1881C7.91671 14.8575 7.9428 15.6042 8.15156 16.3766C8.54299 18.0759 9.61287 20.007 11.309 22.0926C10.2392 23.277 9.27365 24.0752 8.33422 24.5901C7.65576 24.9764 7.00338 25.1824 6.35101 25.2596C5.64643 25.3368 4.96797 25.2338 4.36778 25.0021C3.08912 24.4871 2.1758 23.3285 1.99313 21.9896C1.91485 21.3459 1.96703 20.7022 2.22798 19.9813C2.30627 19.7238 2.43674 19.4664 2.56722 19.1574C2.74989 18.7454 2.95864 18.3077 3.16741 17.87L3.1935 17.8185C4.99406 13.9821 6.92509 10.0684 8.93442 6.25777L9.0127 6.10328C9.22146 5.71707 9.43022 5.3051 9.63893 4.91889C9.84777 4.50692 10.0826 4.12071 10.3696 3.78599C10.9176 3.16804 11.6483 2.83332 12.4573 2.83332C13.2662 2.83332 13.9968 3.16804 14.5449 3.78599C14.8319 4.12071 15.0667 4.50692 15.2755 4.91889C15.4843 5.3051 15.693 5.71707 15.9018 6.10328L15.9801 6.25777C17.9633 10.0942 19.8943 14.0078 21.6949 17.8442V17.87C21.9036 18.282 22.0863 18.7454 22.2951 19.1574C22.4255 19.4664 22.556 19.7238 22.6343 19.9813C22.8431 20.6507 22.9213 21.2944 22.817 21.9639Z" fill="#212121"/>
</svg>
