<svg width="86" height="28" viewBox="0 0 86 28" fill="none" xmlns="http://www.w3.org/2000/svg">
<path fill-rule="evenodd" clip-rule="evenodd" d="M11.511 9.94633V12.9148L18.6008 12.9117C18.3834 14.5489 17.8316 15.7477 16.9928 16.5867C15.9589 17.6214 14.3452 18.7602 11.511 18.7602C7.14254 18.7602 3.72443 15.2367 3.72443 10.8644C3.72443 6.49213 7.14254 2.96846 11.511 2.96846C13.8687 2.96846 15.5896 3.89591 16.8604 5.08833L18.9534 2.9937C17.1823 1.29969 14.8246 0 11.5138 0C5.53172 0 0.5 4.87698 0.5 10.8644C0.5 16.8518 5.53172 21.7287 11.5138 21.7287C14.7424 21.7287 17.1795 20.6688 19.0857 18.6814C21.0463 16.7192 21.6552 13.9654 21.6552 11.7382C21.6552 11.0757 21.6051 10.4638 21.5075 9.94633H11.511ZM71.3148 21.3028V0.798006H68.3203V21.3028H71.3148ZM29.8612 21.7319C33.7252 21.7319 36.8744 18.7635 36.8744 14.7351C36.8744 10.6783 33.7252 7.73828 29.8612 7.73828C25.9958 7.73828 22.8466 10.6783 22.8466 14.7351C22.8466 18.7635 25.9958 21.7319 29.8612 21.7319ZM29.8612 10.495C31.9793 10.495 33.8047 12.2174 33.8047 14.7347C33.8047 17.2238 31.9793 18.9745 29.8612 18.9745C27.7432 18.9745 25.9178 17.2269 25.9178 14.7347C25.9178 12.2174 27.7432 10.495 29.8612 10.495ZM44.9926 21.7319C48.8566 21.7319 52.0058 18.7635 52.0058 14.7351C52.0058 10.6783 48.8566 7.73828 44.9926 7.73828C41.1272 7.73828 37.978 10.6815 37.978 14.7351C37.978 18.7635 41.1272 21.7319 44.9926 21.7319ZM44.9926 10.495C47.1107 10.495 48.9361 12.2174 48.9361 14.7347C48.9361 17.2238 47.1107 18.9745 44.9926 18.9745C42.8746 18.9745 41.0492 17.2269 41.0492 14.7347C41.0492 12.2174 42.8746 10.495 44.9926 10.495ZM66.5074 8.16415V20.7225C66.5074 25.8897 63.4613 28.0002 59.8621 28.0002C56.4732 28.0002 54.4332 25.732 53.664 23.8771L56.3366 22.7635C56.8132 23.9024 57.9795 25.2462 59.8579 25.2462C62.1626 25.2462 63.5909 23.8234 63.5909 21.1453V20.1389H63.4836C62.7966 20.9875 61.4729 21.7289 59.8021 21.7289C56.306 21.7289 53.1025 18.6815 53.1025 14.7603C53.1025 10.8109 56.306 7.73828 59.8021 7.73828C61.4687 7.73828 62.7939 8.47956 63.4836 9.30297H63.5909V8.16415H66.5074ZM63.8083 14.76C63.8083 12.2963 62.1654 10.495 60.0752 10.495C57.9572 10.495 56.1834 12.2963 56.1834 14.76C56.1834 17.1985 57.9572 18.9745 60.0752 18.9745C62.1654 18.9745 63.8083 17.1985 63.8083 14.76ZM82.9848 17.0382L85.3676 18.6281C84.5984 19.767 82.7452 21.7291 79.5416 21.7291C75.5703 21.7291 72.6037 18.6566 72.6037 14.7322C72.6037 10.5714 75.5954 7.7354 79.1989 7.7354C82.8274 7.7354 84.6012 10.625 85.1823 12.1866L85.5 12.9815L76.1528 16.8553C76.869 18.259 77.981 18.9752 79.5416 18.9752C81.1051 18.9752 82.1906 18.2055 82.9848 17.0382ZM75.6484 14.5202L81.8966 11.9241C81.5538 11.0502 80.5198 10.4414 79.302 10.4414C77.7427 10.4414 75.5703 11.8199 75.6484 14.5202Z" fill="#212121"/>
</svg>
