<svg width="70" height="26" viewBox="0 0 70 26" fill="none" xmlns="http://www.w3.org/2000/svg">
<path d="M7.72152 25.4898C5.63581 25.4068 3.92939 24.8349 2.5951 23.7727C2.34046 23.5697 1.73368 22.9613 1.5301 22.7047C0.989034 22.0229 0.621178 21.3594 0.375821 20.6232C-0.379178 18.357 0.00939274 15.3833 1.48725 12.1197C2.7526 9.32563 4.7051 6.55447 8.11152 2.71643C8.61331 2.15167 10.1076 0.5 10.1172 0.5C10.1208 0.5 10.0394 0.641368 9.93688 0.813514C9.05116 2.3002 8.29331 4.05137 7.88045 5.5674C7.21724 7.99999 7.29724 10.0876 8.11474 11.7063C8.67867 12.8215 9.64545 13.7875 10.7326 14.3214C12.6358 15.2559 15.4222 15.3332 18.8251 14.5476C19.0594 14.4932 30.6686 11.405 44.6236 7.68469C58.5786 3.96404 69.9982 0.922313 70 0.924818C70.0039 0.928039 37.5786 14.8322 20.7461 22.0455C18.0804 23.1875 17.3676 23.476 16.1144 23.9169C12.9108 25.0443 10.0412 25.5822 7.72152 25.4898Z" fill="#212121"/>
</svg>
