<svg width="84" height="42" viewBox="0 0 84 42" fill="none" xmlns="http://www.w3.org/2000/svg">
<path fill-rule="evenodd" clip-rule="evenodd" d="M45.2331 0.509401C45.5056 0.465568 45.9598 1.46923 46.2308 1.38057C46.5177 1.28195 46.9187 0.437675 47.3097 0.487982C47.477 0.509899 48.1415 1.84032 48.1415 1.84032C53.4941 2.10431 60.1018 8.59153 60.9531 9.24802C61.3625 9.56481 63.0959 11.358 66.2638 12.7472C67.5663 13.319 68.8748 13.5645 70.0877 13.4744C71.7065 13.3578 73.5171 11.9362 74.6303 10.0001C76.027 7.5784 76.6197 3.35951 80.6498 0.968148C81.2142 0.633427 82.4923 -0.114715 83.2315 0.828183C83.8262 1.59177 83.3341 2.85195 82.7159 3.45515C82.3239 3.83619 81.6146 4.22172 80.2643 4.85779C79.807 5.07546 79.0609 5.63382 78.77 5.86145C77.323 6.96275 76.275 9.46519 75.1095 12.2052C75.1095 12.2052 74.6119 13.5516 72.4217 14.9995C72.0517 15.2386 72.3844 15.4429 72.7878 15.9584C73.3034 16.6413 74.3384 19.4221 74.2039 23.654C74.1825 24.4051 74.4864 24.7314 74.8286 25.3465C75.4203 26.4075 76.5923 26.1704 76.5624 27.5626C76.5226 29.4314 77.9038 29.8294 77.4605 30.6921C77.1367 31.3207 77.2493 31.9309 77.2503 32.5445C77.2503 32.8538 77.4177 33.3061 76.7771 33.2732C74.1506 33.1148 74.326 29.5923 74.3753 28.3799C74.4171 28.2195 74.2966 27.9326 74.2762 27.9187C74.1457 27.8246 72.5104 26.5524 72.4013 26.4443C70.4149 24.4245 69.1054 22.608 68.3737 20.7421C67.8886 19.4979 67.3895 18.271 66.5367 17.4826C65.5814 16.6114 64.4118 16.1213 63.3843 16.1148C56.0782 16.0774 54.5744 12.8722 52.587 11.2748C52.5267 11.2309 52.3454 11.1283 52.2403 11.1194C52.1288 11.1278 52.0426 11.2593 51.9699 11.3206C51.2033 12.125 50.4293 12.3875 49.3902 12.3875C46.9217 12.3875 44.2658 10.2238 43.7981 10.7059C43.441 11.082 43.7513 11.8561 43.0948 11.9856C42.1449 12.1758 41.1627 11.2384 41.2404 10.4444C41.3843 9.02238 42.8383 8.60597 44.1144 8.46053C45.1708 8.34895 46.0326 8.63785 46.2303 8.66026C46.8186 8.74295 46.9217 8.03067 46.8255 7.57043C46.7155 7.07233 46.2507 6.96823 45.7651 6.82378C45.1743 6.64695 44.5168 7.13808 44.076 6.98815C43.5575 6.80236 43.5167 6.53837 43.0903 6.15683C42.5434 5.68164 41.9128 5.55363 41.9148 4.88369C41.9148 4.26306 42.6684 4.21275 42.8831 3.64393C42.9927 3.35901 42.9618 3.06215 43.0589 2.88931C43.3139 2.42508 43.7916 2.447 44.1766 2.07193C44.7001 1.54993 44.9617 0.550245 45.2331 0.509401ZM21.6661 39.2215C22.1722 39.2091 22.6011 38.7956 22.6006 38.2846L22.6051 21.5859H28.104V39.9926C28.104 40.8946 27.3818 41.6308 26.4793 41.6308H16.86C15.9624 41.6308 15.2317 40.8951 15.2317 39.9926V21.5859H20.7352L20.7342 38.2846C20.7342 38.7956 21.1621 39.2091 21.6661 39.2215ZM31.7631 21.5859H48.4229C48.8987 21.5867 49.3546 21.7765 49.6904 22.1136C50.0261 22.4506 50.2141 22.9073 50.2131 23.383V41.6308H44.7036V24.8928C44.6996 24.3797 44.2793 23.9733 43.7707 23.9733C43.2572 23.9733 42.8457 24.3697 42.8378 24.8783V41.6313H37.3527V24.8788C37.3408 24.3702 36.9283 23.9738 36.4143 23.9738C36.1689 23.972 35.9328 24.068 35.7582 24.2405C35.5835 24.413 35.4847 24.6478 35.4834 24.8932V41.6308H29.9744V23.383C29.9729 22.9074 30.1607 22.4507 30.4962 22.1136C30.8317 21.7765 31.2875 21.5867 31.7631 21.5859ZM11.5607 36.5941H6.00099V41.6308H0.5V21.5859H11.5956C12.5888 21.5859 13.3644 22.3933 13.3644 23.391V34.7865C13.3658 35.2656 13.1764 35.7256 12.8379 36.0648C12.4995 36.404 12.0399 36.5944 11.5607 36.5941ZM7.86736 24.9276C7.87081 24.6775 7.77459 24.4363 7.59993 24.2573C7.42527 24.0782 7.18653 23.976 6.93641 23.9733H6.00099V34.112H6.93641C7.42106 34.112 7.87184 33.7265 7.86736 33.1701V24.9276ZM59.4483 41.6308V36.598H57.577V41.6308H52.08V23.383C52.08 22.3868 52.8819 21.5859 53.8691 21.5859H63.1566C63.6326 21.5863 64.0888 21.776 64.4247 22.1131C64.7606 22.4502 64.9486 22.9071 64.9473 23.383L64.9473 41.6308H59.4483ZM59.4483 34.116V24.8858C59.4349 24.3757 59.0229 23.9832 58.5099 23.9832C58.0005 23.9823 57.5849 24.3909 57.577 24.9002V34.116H59.4483Z" fill="#373737"/>
</svg>
