<svg width="72" height="32" viewBox="0 0 72 32" fill="none" xmlns="http://www.w3.org/2000/svg">
<path fill-rule="evenodd" clip-rule="evenodd" d="M5.48392 12.6472C5.48392 11.8402 6.12431 11.5298 7.16843 11.5298C8.67196 11.5298 10.5514 12.0058 12.0549 12.8543V7.99097C10.4261 7.3081 8.79725 7.03906 7.16843 7.03906C3.15902 7.03906 0.5 9.23274 0.5 12.8957C0.5 18.6072 7.9898 17.6968 7.9898 20.1595C7.9898 21.1112 7.2102 21.4217 6.09647 21.4217C4.46765 21.4217 2.37941 20.718 0.722745 19.7662V24.6914C2.54647 25.5192 4.39804 25.8709 6.09647 25.8709C10.2033 25.8709 13.0294 23.7395 13.0294 20.0352C13.0016 13.8683 5.48392 14.965 5.48392 12.6472ZM18.8208 2.90057L14.0039 3.97661L13.99 20.5528C13.99 23.6157 16.1757 25.8712 19.0992 25.8712C20.7141 25.8712 21.8975 25.5608 22.5518 25.1884V20.9873C21.9253 21.2565 18.8069 22.2083 18.8069 19.1455V11.7991H22.5518V7.39122H18.8069L18.8208 2.90057ZM28.6773 8.923L28.371 7.39168H24.111V25.4992H29.0392V13.2275C30.1947 11.6341 32.1716 11.9238 32.7841 12.1514V7.39168C32.1576 7.1433 29.8467 6.68801 28.6773 8.923ZM33.9814 7.3916H38.9374V25.4991H33.9814V7.3916ZM33.9814 5.81843L38.9375 4.70094V0.5L33.9814 1.59684V5.81829V5.81843ZM49.2394 7.03906C47.3043 7.03906 46.0514 7.99097 45.3692 8.65332L45.1047 7.37024H40.7751V31.4997L45.7033 30.403L45.7173 24.5465C46.4273 25.0845 47.4714 25.8502 49.2116 25.8502C52.7477 25.8502 55.9635 22.8703 55.9635 16.3102C55.9357 10.3088 52.692 7.03906 49.2394 7.03906ZM48.0561 21.2978C46.8867 21.2978 46.1906 20.8633 45.7173 20.3252L45.7033 12.6475C46.2184 12.0475 46.9284 11.6336 48.0561 11.6336C49.838 11.6336 51.091 13.7443 51.091 16.4553C51.091 19.2284 49.8659 21.2978 48.0561 21.2978ZM71.5 16.5171C71.5 11.2193 69.0498 7.03906 64.3861 7.03906C59.6806 7.03906 56.8406 11.2195 56.8406 16.4758C56.8406 22.7047 60.1957 25.8502 65.0126 25.8502C67.3514 25.8502 69.1333 25.2915 70.4698 24.5051V20.3662C69.1333 21.0699 67.588 21.5046 65.639 21.5046C63.7318 21.5046 62.0333 20.8009 61.8106 18.3589H71.4582C71.4582 18.0898 71.5 17.0137 71.5 16.5171ZM61.7549 14.5515C61.7549 12.2131 63.1192 11.2404 64.3582 11.2404C65.5694 11.2404 66.8502 12.2131 66.8502 14.5515H61.7549Z" fill="#212121"/>
</svg>
