<svg width="12" height="12" viewBox="0 0 12 12" fill="none" xmlns="http://www.w3.org/2000/svg">
<path d="M0 1.61369C0 1.22889 0.135139 0.911425 0.405405 0.661313C0.675672 0.411189 1.02703 0.286133 1.45946 0.286133C1.88417 0.286133 2.2278 0.409261 2.49035 0.655541C2.76061 0.909509 2.89575 1.24043 2.89575 1.64833C2.89575 2.01773 2.76448 2.32557 2.50193 2.57185C2.23166 2.82581 1.87645 2.9528 1.43629 2.9528H1.42471C0.999996 2.9528 0.656375 2.82581 0.393822 2.57185C0.13127 2.31788 0 1.99849 0 1.61369ZM0.150579 11.7147V4.0033H2.72201V11.7147H0.150579ZM4.14672 11.7147H6.71815V7.40878C6.71815 7.13942 6.74904 6.93162 6.81081 6.78541C6.91891 6.52374 7.08301 6.30248 7.30309 6.12163C7.52317 5.94077 7.79922 5.85034 8.13127 5.85034C8.99614 5.85034 9.42857 6.43139 9.42857 7.59349V11.7147H12V7.29334C12 6.15433 11.7297 5.29046 11.1892 4.70172C10.6486 4.11297 9.93437 3.8186 9.04633 3.8186C8.05019 3.8186 7.27413 4.24573 6.71815 5.09998V5.12307H6.70656L6.71815 5.09998V4.0033H4.14672C4.16216 4.24957 4.16988 5.01532 4.16988 6.30056C4.16988 7.58579 4.16216 9.3905 4.14672 11.7147Z" fill="#03001C"/>
</svg>
