<svg width="174" height="46" viewBox="0 0 174 46" fill="none" xmlns="http://www.w3.org/2000/svg">
<g clip-path="url(#clip0_436_7463)">
<path d="M31.1528 42.992L33.329 45.89L57.9666 0L31.1227 42.2167C30.9702 42.4563 30.9823 42.765 31.1528 42.992Z" fill="#03001C"/>
<path d="M57.9667 0L24.0197 32.2883C23.7186 32.5744 23.6797 33.0403 23.9291 33.3725L27.5906 38.2483L28.9012 39.9961L28.9869 36.7542C28.9917 36.577 29.0538 36.4059 29.1642 36.2671L57.9667 0Z" fill="#03001C"/>
<path d="M57.9643 0L13.9735 18.1293C13.3957 18.3675 13.1982 19.0861 13.5732 19.5854L18.571 26.2407L20.2092 28.4247L20.7794 25.1273C20.8242 24.8691 20.9731 24.6405 21.1912 24.4952L57.9643 0Z" fill="#03001C"/>
<path d="M57.9663 0H1.14754C0.247131 0.000569315 -0.331617 1.06652 0.20855 1.78594L6.27673 9.86642L8.24246 12.4866L9.26884 9.82012C9.40449 9.4679 9.71268 9.21037 10.0839 9.13959L57.9663 0Z" fill="#03001C"/>
<path d="M71.5408 36.7129C69.5583 36.7129 67.8391 36.2663 66.3827 35.373C64.9265 34.4796 63.8007 33.2497 63.0052 31.6834C62.2221 30.1048 61.8304 28.2875 61.8304 26.2317C61.8304 24.1635 62.2343 22.3463 63.0419 20.7799C63.8496 19.2013 64.9816 17.9776 66.4378 17.1087C67.8941 16.2277 69.595 15.7871 71.5408 15.7871C73.5232 15.7871 75.2426 16.2337 76.6988 17.1271C78.1551 18.0205 79.2809 19.2503 80.0763 20.8167C80.8718 22.383 81.2694 24.1881 81.2694 26.2317C81.2694 28.2998 80.8656 30.1231 80.058 31.7018C79.2626 33.2681 78.1368 34.498 76.6804 35.3913C75.2242 36.2724 73.5111 36.7129 71.5408 36.7129ZM71.5408 33.0968C73.4376 33.0968 74.851 32.4604 75.781 31.1878C76.7234 29.9029 77.1944 28.2508 77.1944 26.2317C77.1944 24.1635 76.7172 22.5115 75.7626 21.2756C74.8204 20.0273 73.4131 19.4032 71.5408 19.4032C70.2558 19.4032 69.1974 19.6969 68.3652 20.2843C67.5331 20.8594 66.9151 21.661 66.5112 22.689C66.1074 23.7046 65.9055 24.8856 65.9055 26.2317C65.9055 28.312 66.3827 29.9763 67.3372 31.2245C68.2918 32.4727 69.693 33.0968 71.5408 33.0968Z" fill="#0C0C0C"/>
<path d="M92.8928 36.6946C90.4821 36.6946 88.518 36.1623 87.0006 35.0976C85.4832 34.033 84.5531 32.5339 84.2104 30.6004L88.1386 29.9947C88.3835 31.0226 88.9463 31.8363 89.8274 32.436C90.7207 33.0234 91.8282 33.3171 93.1498 33.3171C94.3492 33.3171 95.2853 33.0724 95.9583 32.5828C96.6437 32.0933 96.9862 31.4203 96.9862 30.5637C96.9862 30.062 96.8639 29.6582 96.6191 29.3522C96.3867 29.0341 95.8911 28.7342 95.1323 28.4527C94.3736 28.1713 93.2172 27.8226 91.663 27.4065C89.9621 26.9659 88.6098 26.4947 87.6063 25.993C86.6151 25.4791 85.9054 24.8856 85.477 24.2125C85.061 23.5273 84.8529 22.7012 84.8529 21.7345C84.8529 20.5352 85.1712 19.4889 85.8074 18.5956C86.4438 17.7022 87.3372 17.0109 88.4874 16.5213C89.65 16.0318 91.0084 15.7871 92.5624 15.7871C94.0799 15.7871 95.4322 16.0257 96.6191 16.503C97.8062 16.9802 98.7668 17.6594 99.501 18.5405C100.235 19.4093 100.676 20.4312 100.823 21.606L96.8944 22.3218C96.7599 21.3673 96.3132 20.6147 95.5545 20.0641C94.7958 19.5134 93.8106 19.2136 92.5991 19.1646C91.4366 19.1156 90.4944 19.3115 89.7723 19.752C89.0504 20.1803 88.6893 20.7739 88.6893 21.5325C88.6893 21.9731 88.824 22.3463 89.0931 22.6523C89.3747 22.9582 89.9131 23.2519 90.7085 23.5333C91.504 23.8148 92.6788 24.1514 94.2328 24.5429C95.8971 24.9712 97.2188 25.4484 98.1977 25.9747C99.1768 26.4887 99.8743 27.1067 100.29 27.8286C100.719 28.5384 100.933 29.4012 100.933 30.4168C100.933 32.3749 100.217 33.9106 98.7851 35.0242C97.3656 36.1378 95.4015 36.6946 92.8928 36.6946Z" fill="#0C0C0C"/>
<path d="M110.96 36.7129C109.492 36.7129 108.262 36.4437 107.271 35.9053C106.279 35.3546 105.527 34.6326 105.013 33.7393C104.511 32.8338 104.26 31.8425 104.26 30.7656C104.26 29.7621 104.438 28.881 104.792 28.1223C105.147 27.3637 105.674 26.7212 106.371 26.195C107.069 25.6566 107.925 25.2221 108.941 24.8917C109.822 24.6347 110.819 24.4083 111.933 24.2125C113.047 24.0167 114.215 23.8331 115.439 23.6618C116.675 23.4905 117.898 23.3191 119.11 23.1479L117.715 23.9188C117.74 22.3646 117.41 21.2144 116.724 20.4679C116.051 19.7092 114.888 19.3298 113.236 19.3298C112.196 19.3298 111.241 19.5745 110.373 20.0641C109.504 20.5413 108.898 21.3367 108.555 22.4503L104.976 21.349C105.466 19.6479 106.396 18.2958 107.766 17.2923C109.149 16.2888 110.985 15.7871 113.273 15.7871C115.047 15.7871 116.589 16.0931 117.898 16.7049C119.22 17.3046 120.187 18.2591 120.799 19.5684C121.117 20.217 121.313 20.9024 121.386 21.6243C121.459 22.3463 121.496 23.1234 121.496 23.9555V36.1623H118.1V31.6283L118.761 32.2157C117.942 33.7332 116.896 34.8651 115.622 35.6116C114.362 36.3458 112.808 36.7129 110.96 36.7129ZM111.639 33.5741C112.728 33.5741 113.664 33.3844 114.448 33.005C115.231 32.6135 115.861 32.1179 116.338 31.5182C116.815 30.9185 117.127 30.2944 117.274 29.6459C117.483 29.0585 117.599 28.3977 117.623 27.6634C117.66 26.9292 117.678 26.3418 117.678 25.9013L118.926 26.3602C117.715 26.5437 116.613 26.7089 115.622 26.8558C114.631 27.0026 113.732 27.1495 112.924 27.2963C112.129 27.4309 111.419 27.5961 110.795 27.7919C110.269 27.9755 109.798 28.1958 109.381 28.4527C108.978 28.7097 108.653 29.0218 108.409 29.3889C108.176 29.756 108.06 30.2026 108.06 30.7289C108.06 31.2429 108.188 31.7201 108.445 32.1607C108.702 32.5889 109.094 32.9316 109.62 33.1886C110.146 33.4456 110.819 33.5741 111.639 33.5741Z" fill="#0C0C0C"/>
<path d="M131.273 36.1604L124.077 16.3359H127.951L133.219 31.3511L138.487 16.3359H142.36L135.164 36.1604H131.273Z" fill="#0C0C0C"/>
<path d="M153.505 36.6927C152.135 36.6927 150.984 36.4725 150.055 36.0319C149.124 35.5914 148.366 35.0163 147.778 34.3065C147.203 33.5845 146.762 32.8013 146.457 31.9569C146.15 31.1125 145.943 30.2865 145.833 29.4788C145.723 28.6712 145.667 27.9614 145.667 27.3495V16.3359H149.559V26.083C149.559 26.8539 149.62 27.6493 149.743 28.4693C149.877 29.2769 150.121 30.0295 150.477 30.727C150.844 31.4246 151.351 31.9875 152 32.4158C152.661 32.8441 153.517 33.0583 154.57 33.0583C155.255 33.0583 155.903 32.9481 156.516 32.7278C157.127 32.4953 157.66 32.1282 158.113 31.6265C158.577 31.1248 158.939 30.464 159.196 29.644C159.464 28.8241 159.6 27.8268 159.6 26.652L161.986 27.5515C161.986 29.3503 161.649 30.9412 160.976 32.324C160.303 33.6946 159.336 34.7654 158.076 35.5363C156.815 36.3073 155.292 36.6927 153.505 36.6927ZM160.059 36.1604V30.4333H159.6V16.3359H163.473V36.1604H160.059Z" fill="#0C0C0C"/>
<path d="M169.355 36.1611V9.17773H173.191V36.1611H169.355Z" fill="#0C0C0C"/>
</g>
<defs>
<clipPath id="clip0_436_7463">
<rect width="173.235" height="45.89" fill="white"/>
</clipPath>
</defs>
</svg>
