<svg width="24" height="24" viewBox="0 0 24 24" fill="none" xmlns="http://www.w3.org/2000/svg">
<path fill-rule="evenodd" clip-rule="evenodd" d="M10.7093 13.2185H19.8613C20.1547 13.2185 20.3947 13.4585 20.4 13.7519C20.4 16.4452 19.3387 19.0052 17.4187 20.9625C15.504 22.8825 12.9067 23.9599 10.1973 23.9492C4.576 23.9492 0 19.3732 0 13.7519C0 11.0585 1.056 8.49852 2.976 6.54119C4.88 4.62119 7.47733 3.54386 10.1867 3.55452H10.192C10.4853 3.55986 10.7147 3.79986 10.7093 4.08786V13.2185ZM10.1973 22.8879C12.6187 22.8932 14.944 21.9332 16.656 20.2159C18.2507 18.5945 19.184 16.5252 19.312 14.2852H10.1973C9.904 14.2852 9.64267 14.0452 9.64267 13.7519V4.63719C7.41333 4.75986 5.30667 5.70919 3.728 7.29319C2.02133 9.01052 1.06667 11.3305 1.06667 13.7519C1.06667 18.7865 5.16267 22.8825 10.1973 22.8879Z" fill="#03001C"/>
<path fill-rule="evenodd" clip-rule="evenodd" d="M20.9973 3.0213C20.9973 3.01903 20.9973 3.01773 20.9969 3.01657C20.9964 3.015 20.9951 3.0137 20.992 3.01063C19.0347 1.09063 16.4853 0.0292969 13.792 0.0292969C13.504 0.0292969 13.2693 0.263964 13.2693 0.557297V0.56263V10.232C13.2587 10.52 13.4827 10.76 13.7707 10.7653H13.7813H23.4453C23.7387 10.7653 23.9787 10.5253 23.9787 10.232C23.9787 7.53863 22.9227 4.9733 20.9973 3.0213ZM14.336 1.11196C15.3227 1.17596 16.2987 1.39463 17.216 1.76263L14.336 4.64263V1.11196ZM18.2293 2.24796L14.336 6.15196V8.9093L19.8507 3.3893C19.3547 2.95196 18.8107 2.56796 18.2293 2.24796ZM15.04 9.69863L20.592 4.14663C21.0293 4.64263 21.4133 5.1813 21.7387 5.7573L17.7973 9.69863H15.04ZM22.2293 6.77596L19.3067 9.69863H22.896C22.8373 8.69596 22.6133 7.7093 22.2293 6.77596Z" fill="#03001C"/>
</svg>
