<svg width="12" height="10" viewBox="0 0 12 10" fill="none" xmlns="http://www.w3.org/2000/svg">
<path d="M8.01803 0.133997V0.131836H8.5807L8.78629 0.172897C8.92336 0.199555 9.04779 0.234489 9.1596 0.277712C9.27142 0.320934 9.37963 0.371364 9.48422 0.42899C9.58882 0.486616 9.68369 0.545334 9.76881 0.605121C9.85321 0.664196 9.92896 0.726868 9.99604 0.793139C10.0624 0.860134 10.1659 0.877423 10.3066 0.845006C10.4473 0.812589 10.5987 0.767562 10.761 0.709936C10.9234 0.65231 11.0839 0.587476 11.2426 0.515435C11.4013 0.443394 11.4979 0.397654 11.5326 0.378204C11.5665 0.35804 11.5845 0.347235 11.5867 0.345787L11.5888 0.342545L11.5996 0.337142L11.6105 0.33174L11.6213 0.326337L11.6321 0.320934L11.6343 0.317692L11.6375 0.315531L11.6408 0.31337L11.6429 0.310128L11.6537 0.306887L11.6646 0.304726L11.6624 0.320934L11.6592 0.337142L11.6537 0.353351L11.6483 0.369559L11.6429 0.380365L11.6375 0.39117L11.6321 0.407379C11.6285 0.418184 11.6249 0.432588 11.6213 0.450601C11.6177 0.468614 11.5834 0.540644 11.5185 0.666713C11.4536 0.792782 11.3724 0.920645 11.275 1.05031C11.1776 1.17998 11.0904 1.27794 11.0132 1.34422C10.9353 1.41122 10.8837 1.45804 10.8584 1.4847C10.8332 1.51207 10.8025 1.53728 10.7665 1.56034L10.7124 1.596L10.7015 1.6014L10.6907 1.6068L10.6886 1.61004L10.6853 1.6122L10.6821 1.61436L10.6799 1.61761L10.6691 1.62301L10.6583 1.62841L10.6561 1.63165L10.6528 1.63382L10.6496 1.63598L10.6474 1.63922L10.6453 1.64246L10.642 1.64462L10.6388 1.64678L10.6366 1.65002H10.6907L10.9937 1.58519C11.1957 1.54197 11.3886 1.48974 11.5726 1.42851L11.8647 1.33126L11.8972 1.32045L11.9134 1.31505L11.9243 1.30965L11.9351 1.30424L11.9459 1.29884L11.9567 1.29344L11.9784 1.2902L12 1.28804V1.30965L11.9946 1.31181L11.9892 1.31505L11.987 1.31829L11.9838 1.32045L11.9805 1.32261L11.9784 1.32586L11.9762 1.3291L11.9729 1.33126L11.9697 1.33342L11.9675 1.33666L11.9654 1.3399L11.9621 1.34206L11.9567 1.35287L11.9513 1.36367L11.9481 1.36584C11.9466 1.368 11.9008 1.42922 11.8106 1.54953C11.7205 1.67055 11.6718 1.73178 11.6646 1.73323C11.6574 1.73539 11.6472 1.74619 11.6343 1.76564C11.622 1.78581 11.5455 1.86614 11.4049 2.00661C11.2642 2.14708 11.1264 2.27206 10.9915 2.38156C10.8559 2.49178 10.7874 2.62721 10.7859 2.78785C10.7838 2.94778 10.7755 3.1286 10.761 3.3303C10.7466 3.532 10.7196 3.74991 10.6799 3.98403C10.6402 4.21816 10.5789 4.4829 10.4959 4.77825C10.413 5.0736 10.312 5.36175 10.193 5.64269C10.0739 5.92364 9.9495 6.17577 9.81966 6.39909C9.68981 6.62241 9.57078 6.8115 9.46258 6.96638C9.35437 7.12126 9.24437 7.26713 9.13255 7.40401C9.02074 7.54088 8.87936 7.69505 8.7084 7.86649C8.53671 8.03722 8.44294 8.13087 8.42706 8.14743C8.41047 8.16329 8.33978 8.22236 8.21497 8.32465C8.0909 8.42766 7.95744 8.53067 7.81461 8.63369C7.6725 8.73598 7.54193 8.82135 7.4229 8.88978C7.30388 8.95821 7.16033 9.03637 6.99225 9.12426C6.82489 9.21287 6.64382 9.29499 6.44905 9.37063C6.25428 9.44627 6.04869 9.5165 5.83228 9.58134C5.61587 9.64617 5.40668 9.6966 5.20469 9.73262C5.00271 9.76863 4.77367 9.79925 4.51758 9.82446L4.13345 9.86228V9.86769H3.43012V9.86228L3.33814 9.85688C3.27683 9.85328 3.22633 9.84967 3.18665 9.84608C3.14699 9.84248 2.99729 9.82266 2.7376 9.78664C2.47791 9.75063 2.27412 9.7146 2.12624 9.67859C1.97837 9.64257 1.75834 9.57413 1.46619 9.47328C1.17403 9.37243 0.924076 9.27049 0.716321 9.16748C0.509291 9.06519 0.379445 9.00035 0.326781 8.97298C0.274842 8.94632 0.216411 8.91319 0.151488 8.87357L0.0541028 8.81414L0.0519495 8.8109L0.0486925 8.80874L0.0454463 8.80658L0.0432822 8.80333L0.0324617 8.79793L0.0216411 8.79253L0.0194878 8.78929L0.0162308 8.78713L0.0129847 8.78496L0.0108206 8.78172L0.00866727 8.77848L0.00541028 8.77632H0V8.75471L0.0108206 8.75687L0.0216411 8.76011L0.0703336 8.76551C0.102795 8.76911 0.191167 8.77452 0.335437 8.78172C0.479719 8.78893 0.633003 8.78893 0.795311 8.78172C0.957619 8.77452 1.12354 8.75831 1.29306 8.7331C1.46258 8.70789 1.66276 8.66467 1.8936 8.60343C2.12444 8.5422 2.33653 8.46944 2.52986 8.38516C2.72246 8.30016 2.85952 8.23676 2.94104 8.19498C3.02183 8.15392 3.14518 8.07755 3.31109 7.9659L3.55996 7.79841L3.56213 7.79517L3.56537 7.79301L3.56863 7.79085L3.57078 7.78761L3.57295 7.78437L3.57619 7.7822L3.57945 7.78004L3.58161 7.7768L3.59243 7.77356L3.60325 7.7714L3.60541 7.76059L3.60866 7.74979L3.61191 7.74763L3.61407 7.74438L3.5275 7.73898C3.4698 7.73538 3.41389 7.73177 3.35978 7.72818C3.30568 7.72458 3.22092 7.70837 3.1055 7.67955C2.99009 7.65073 2.86565 7.60751 2.73219 7.54988C2.59874 7.49226 2.46889 7.42381 2.34265 7.34458C2.21642 7.26534 2.12516 7.19941 2.06889 7.14683C2.01335 7.09496 1.94121 7.02149 1.85248 6.9264C1.76448 6.8306 1.68801 6.73226 1.62308 6.63141C1.55816 6.53056 1.49613 6.4142 1.43698 6.28239L1.34716 6.08572L1.34175 6.06952L1.33634 6.05331L1.33309 6.0425L1.33093 6.0317L1.34716 6.03386L1.36339 6.0371L1.48242 6.05331C1.56177 6.06411 1.68621 6.06771 1.85573 6.06411C2.02525 6.06051 2.14247 6.05331 2.20739 6.0425C2.27232 6.0317 2.312 6.02449 2.32642 6.02089L2.34806 6.01549L2.37511 6.01009L2.40216 6.00468L2.40433 6.00144L2.40757 5.99928L2.41083 5.99712L2.41298 5.99388L2.39134 5.98847L2.3697 5.98307L2.34806 5.97767L2.32642 5.97227L2.30478 5.96686C2.29036 5.96326 2.26511 5.95606 2.22904 5.94525C2.19297 5.93445 2.09559 5.89482 1.93688 5.82639C1.77819 5.75796 1.65194 5.69132 1.55816 5.62649C1.46415 5.56146 1.3745 5.49036 1.28981 5.41362C1.20541 5.33581 1.11272 5.23568 1.01172 5.11322C0.910734 4.99076 0.820566 4.84848 0.741208 4.6864C0.661861 4.52431 0.602348 4.36944 0.562669 4.22176C0.52315 4.07495 0.497077 3.92485 0.484772 3.77332L0.465284 3.54641L0.476105 3.54857L0.486925 3.55181L0.497746 3.55721L0.508566 3.56262L0.519387 3.56802L0.530207 3.57342L0.697926 3.64906C0.809746 3.69949 0.948606 3.74271 1.11452 3.77873C1.28044 3.81474 1.37962 3.83456 1.41208 3.83816L1.46078 3.84356H1.55816L1.55601 3.84032L1.55275 3.83816L1.5495 3.836L1.54734 3.83276L1.54519 3.82951L1.54193 3.82735L1.53868 3.82519L1.53652 3.82195L1.5257 3.81655L1.51488 3.81114L1.51272 3.8079L1.50947 3.80574L1.50622 3.80358L1.50406 3.80034L1.49324 3.79494L1.48242 3.78953L1.48026 3.78629C1.4781 3.78484 1.44708 3.7618 1.3872 3.71714C1.32804 3.67175 1.26601 3.61305 1.20108 3.541C1.13616 3.46896 1.07124 3.39332 1.00631 3.31409C0.941269 3.23467 0.883337 3.1497 0.833183 3.06015C0.782694 2.97011 0.729306 2.85556 0.673039 2.71654C0.617497 2.57822 0.575297 2.43883 0.546438 2.29836C0.517591 2.15789 0.50136 2.01922 0.497746 1.88234C0.494142 1.74547 0.497746 1.62841 0.508566 1.53116C0.519387 1.43391 0.541028 1.32405 0.57349 1.20159C0.605951 1.07913 0.652848 0.949464 0.714157 0.812589L0.806132 0.607283L0.811542 0.591074L0.816952 0.574866L0.820209 0.572705L0.822362 0.569463L0.824527 0.566221L0.827773 0.56406L0.83103 0.566221L0.833183 0.569463L0.835347 0.572705L0.838593 0.574866L0.84185 0.577027L0.844004 0.580269L0.846168 0.58351L0.849414 0.585671L0.854824 0.596477L0.860234 0.607283L0.863491 0.609444L0.865645 0.612685L1.01172 0.774769C1.10911 0.882825 1.22453 1.00349 1.35798 1.13676C1.49144 1.27002 1.56538 1.33918 1.5798 1.34422C1.59424 1.34998 1.61226 1.36655 1.6339 1.39393C1.65555 1.42059 1.72769 1.48434 1.85032 1.58519C1.97296 1.68604 2.13346 1.80311 2.33183 1.93637C2.53021 2.06964 2.75023 2.20111 2.99188 2.33078C3.23355 2.46044 3.49324 2.5775 3.77096 2.68196C4.0487 2.78642 4.24347 2.85485 4.35528 2.88727C4.46709 2.91968 4.65825 2.9611 4.92876 3.01153C5.19928 3.06196 5.40307 3.09438 5.54013 3.10878C5.67719 3.12318 5.77097 3.13147 5.82146 3.13363L5.8972 3.13579L5.89505 3.11959L5.89179 3.10338L5.87015 2.96831C5.85573 2.87826 5.84851 2.7522 5.84851 2.59011C5.84851 2.42803 5.86114 2.27855 5.88638 2.14168C5.91164 2.0048 5.94951 1.86614 6 1.72566C6.0505 1.58519 6.09992 1.47244 6.14824 1.38745C6.1973 1.30316 6.2615 1.20699 6.34085 1.09894C6.42021 0.990882 6.523 0.879227 6.64923 0.763964C6.77548 0.6487 6.91975 0.546047 7.08206 0.456004C7.24436 0.365961 7.39406 0.297518 7.53111 0.250698C7.66817 0.203877 7.7836 0.173254 7.87737 0.15885C7.97115 0.144446 8.01803 0.136158 8.01803 0.133997Z" fill="#03001C"/>
</svg>
