<svg width="14" height="10" viewBox="0 0 14 10" fill="none" xmlns="http://www.w3.org/2000/svg">
<path d="M7.29234 9.65377L4.58421 9.60316C3.70738 9.58552 2.82837 9.62073 1.96873 9.438C0.661017 9.165 0.568374 7.8264 0.471433 6.70357C0.337858 5.12501 0.389569 3.5178 0.641642 1.95241C0.783945 1.07407 1.34397 0.549954 2.21002 0.49292C5.13359 0.285937 8.0766 0.310466 10.9937 0.407032C11.3018 0.415884 11.612 0.464268 11.9157 0.519342C13.4153 0.787954 13.4519 2.30489 13.5491 3.58186C13.646 4.872 13.6051 6.16878 13.4198 7.45014C13.2711 8.51107 12.9867 9.40077 11.7865 9.48666C10.2826 9.59897 8.81331 9.68938 7.30523 9.6606C7.3053 9.65377 7.29664 9.65377 7.29234 9.65377ZM5.70022 6.96779C6.83349 6.30285 7.94514 5.64899 9.07193 4.9885C7.93654 4.32356 6.82701 3.6697 5.70022 3.00922V6.96779Z" fill="#03001C"/>
</svg>
